<svg width="102" height="102" viewBox="0 0 102 102" fill="none" xmlns="http://www.w3.org/2000/svg">
<g clip-path="url(#clip0_243_45)">
<path d="M62.5 72.25C60.1667 72.25 57.9 71.5167 55.7 70.05C53.5333 68.6167 51.6833 66.2167 50.15 62.85C49.4833 61.35 48.9333 59.8333 48.5 58.3C48.1 56.7667 47.8 55.3333 47.6 54C47.4 52.6667 47.3 51.5667 47.3 50.7C47.3 49.6333 47.4167 49.0333 47.65 48.9C48.2833 48.9667 49.3333 48.7 50.8 48.1C52.3 47.5 54.0667 46.6167 56.1 45.45C58.1667 44.2833 60.3833 42.8833 62.75 41.25C65.15 39.5833 67.55 37.7167 69.95 35.65C72.3833 33.5833 74.7167 31.35 76.95 28.95C79.1833 26.55 81.15 24.0333 82.85 21.4C83.0833 21.0333 83.2667 20.7667 83.4 20.6C83.5333 20.4333 83.6667 20.35 83.8 20.35C83.9667 20.35 84.1167 20.4333 84.25 20.6C84.3833 20.7333 84.45 20.8833 84.45 21.05C84.45 21.3167 84.3333 21.6333 84.1 22C82.5 24.6667 80.6 27.2833 78.4 29.85C76.2333 32.3833 73.9167 34.7667 71.45 37C68.9833 39.2333 66.5 41.25 64 43.05C61.5 44.85 59.1167 46.35 56.85 47.55C54.5833 48.75 52.5833 49.5667 50.85 50C50.75 49.9333 50.7 50.1 50.7 50.5C50.7 51.0667 50.8167 51.9833 51.05 53.25C51.2833 54.4833 51.6333 55.9 52.1 57.5C52.6 59.0667 53.2 60.6667 53.9 62.3C55.1667 65.2667 56.65 67.3 58.35 68.4C60.0833 69.5333 61.8667 70.1 63.7 70.1C64.8667 70.1 66.0667 69.8667 67.3 69.4C68.5333 68.9333 69.6667 68.2833 70.7 67.45C71.7333 66.65 72.5333 65.7 73.1 64.6C73.3 64.2667 73.45 64.1 73.55 64.1C73.7833 64.1 73.9 64.2333 73.9 64.5C73.9 64.6 73.8667 64.7 73.8 64.8C73.7667 64.9333 73.6667 65.1833 73.5 65.55C73.0333 66.4833 72.25 67.4667 71.15 68.5C70.0833 69.5667 68.8 70.45 67.3 71.15C65.8333 71.8833 64.2333 72.25 62.5 72.25ZM20.05 71.6C17.7833 71.6 15.5833 71.2833 13.45 70.65C11.35 70.05 9.45 69.15 7.75 67.95C6.08333 66.75 4.75 65.2833 3.75 63.55C2.78333 61.8167 2.3 59.85 2.3 57.65C2.3 56.05 2.53333 54.6333 3 53.4C3.5 52.1333 4.1 51.0833 4.8 50.25C5.53333 49.4167 6.25 48.7833 6.95 48.35C7.68333 47.9167 8.28333 47.7 8.75 47.7C9.08333 47.7 9.25 47.8 9.25 48C9.25 48.1667 9.16667 48.3 9 48.4C8.23333 48.8 7.45 49.3833 6.65 50.15C5.85 50.9167 5.18333 51.9167 4.65 53.15C4.11667 54.3833 3.85 55.9167 3.85 57.75C3.85 59.75 4.26667 61.4667 5.1 62.9C5.96667 64.3 7.08333 65.45 8.45 66.35C9.85 67.25 11.35 67.9 12.95 68.3C14.55 68.7333 16.0833 68.95 17.55 68.95C20.8167 68.95 23.8667 68.3167 26.7 67.05C29.5333 65.7833 32.1167 64.1 34.45 62C36.8167 59.8667 38.9 57.5 40.7 54.9C42.5 52.3 43.9833 49.6667 45.15 47C45.5833 46.0333 46.1 44.8833 46.7 43.55C47.3 42.1833 47.95 40.7333 48.65 39.2C49.35 37.6667 50.0333 36.1667 50.7 34.7C51.3667 33.2333 51.9667 31.9167 52.5 30.75C53.0667 29.55 53.5167 28.6333 53.85 28C51.6167 28.2667 49.2 28.5167 46.6 28.75C44.0333 28.95 41.5833 29.3833 39.25 30.05C36.65 30.7833 34.5167 31.85 32.85 33.25C31.2167 34.65 30 36.1667 29.2 37.8C28.4333 39.4333 28.05 40.9667 28.05 42.4C28.05 44.1333 28.4833 45.5667 29.35 46.7C30.2167 47.8 31.4667 48.35 33.1 48.35C34.3333 48.35 35.4333 48 36.4 47.3C37.3667 46.5667 38.1333 45.6333 38.7 44.5C39.2667 43.3333 39.55 42.1 39.55 40.8C39.55 40.2667 39.5 39.8167 39.4 39.45C39.3 39.0833 39.25 38.8 39.25 38.6C39.25 38.3667 39.3333 38.25 39.5 38.25C39.7333 38.25 39.95 38.45 40.15 38.85C40.4833 39.6167 40.65 40.3667 40.65 41.1C40.65 42.6667 40.2667 44.0833 39.5 45.35C38.7333 46.5833 37.75 47.5667 36.55 48.3C35.35 49.0333 34.0833 49.4 32.75 49.4C31.1833 49.4 29.8167 49.0333 28.65 48.3C27.5167 47.5333 26.6333 46.5333 26 45.3C25.3667 44.0667 25.05 42.7333 25.05 41.3C25.05 39.6667 25.5 38.0167 26.4 36.35C27.3 34.65 28.75 33.1167 30.75 31.75C32.75 30.35 35.3833 29.2833 38.65 28.55C41.3833 27.95 44.1667 27.5667 47 27.4C49.8333 27.2 52.3333 27 54.5 26.8C55.6667 25 56.6167 23.8667 57.35 23.4C58.0833 22.9 58.75 22.65 59.35 22.65C59.95 22.65 60.4167 22.8167 60.75 23.15C61.1167 23.4833 61.3 23.8833 61.3 24.35C61.3 25.0167 60.8333 25.7333 59.9 26.5C59 27.2333 57.4667 27.7167 55.3 27.95C54.2333 29.9167 53.25 32.1167 52.35 34.55C51.45 36.95 50.55 39.4667 49.65 42.1C48.75 44.7333 47.7667 47.35 46.7 49.95C44.9 54.2833 42.7667 58.0833 40.3 61.35C37.8333 64.5833 34.9333 67.1 31.6 68.9C28.2667 70.7 24.4167 71.6 20.05 71.6ZM56.25 26.7C57.0833 26.6333 57.8833 26.4 58.65 26C59.4167 25.5667 59.8 25.1 59.8 24.6C59.8 24.2667 59.6333 24.1 59.3 24.1C59 24.1 58.5833 24.3 58.05 24.7C57.5167 25.0667 56.9167 25.7333 56.25 26.7ZM65.1563 63.2C63.7896 63.2 62.6729 62.7833 61.8063 61.95C60.9729 61.0833 60.5562 60.1833 60.5562 59.25C60.5562 58.4833 60.7562 57.7833 61.1562 57.15C61.5229 56.4833 62.0229 56.15 62.6563 56.15L62.7063 56.05C63.4396 54.7167 64.1396 53.3667 64.8063 52C65.5063 50.6 66.2729 49.1167 67.1063 47.55C67.8063 46.25 68.5563 45.1833 69.3563 44.35C70.1896 43.5167 71.1563 43.1 72.2563 43.1C72.5229 43.1 72.8896 43.1667 73.3563 43.3C73.8229 43.4 74.0563 43.6333 74.0563 44C74.0563 44.2667 73.9063 44.4 73.6063 44.4C73.3729 44.4 73.1063 44.3333 72.8063 44.2C72.5396 44.0667 72.3229 44 72.1563 44C71.5229 44 70.9896 44.3667 70.5563 45.1C70.1229 45.8333 69.9063 46.6167 69.9063 47.45C69.9063 48.35 70.0563 49.1667 70.3563 49.9C70.6563 50.6 71.0063 51.2833 71.4063 51.95C71.8063 52.6167 72.1563 53.3 72.4563 54C72.7563 54.6667 72.9063 55.4 72.9063 56.2C72.9063 57.8 72.5896 59.1 71.9563 60.1C71.3563 61.0667 70.5563 61.8 69.5563 62.3H69.6063C71.3729 62.3 72.8229 61.4833 73.9563 59.85C75.1229 58.1833 76.2729 56.0167 77.4063 53.35C77.8063 53.35 78.0063 53.5 78.0063 53.8C77.3729 55.3 76.6729 56.7667 75.9063 58.2C75.1396 59.6333 74.2396 60.8167 73.2063 61.75C72.1729 62.6833 70.9063 63.15 69.4063 63.15C68.7729 63.15 68.1896 63.0833 67.6563 62.95C66.8896 63.1167 66.0563 63.2 65.1563 63.2ZM64.4063 57.9C64.4063 58.7 64.5896 59.4667 64.9563 60.2C65.3229 60.9333 65.9896 61.4833 66.9563 61.85C67.8229 61.35 68.4896 60.5833 68.9563 59.55C69.4563 58.4833 69.7063 57.3833 69.7063 56.25C69.7063 55.3167 69.6063 54.3667 69.4063 53.4C69.2063 52.4333 68.9896 51.4833 68.7563 50.55C68.5563 49.6167 68.4563 48.7833 68.4563 48.05C68.4563 47.8167 68.4563 47.6167 68.4563 47.45C68.4896 47.25 68.5229 47.0667 68.5563 46.9C67.9563 47.8 67.3396 48.85 66.7063 50.05C66.1063 51.25 65.5229 52.4 64.9563 53.5C64.3896 54.6 63.8729 55.5 63.4063 56.2C64.0729 56.3 64.4063 56.8667 64.4063 57.9ZM62.7563 60.4C62.7563 60.9333 62.9396 61.4 63.3063 61.8C63.6729 62.2 64.2229 62.4 64.9563 62.4C65.2896 62.4 65.6063 62.3667 65.9063 62.3C65.2063 61.8667 64.6396 61.3167 64.2063 60.65C63.8063 59.9833 63.6063 59.2167 63.6063 58.35C63.3063 58.6833 63.0896 59.0333 62.9563 59.4C62.8229 59.7333 62.7563 60.0667 62.7563 60.4ZM72.5863 63.4C73.9863 60.5333 75.4363 57.5333 76.9363 54.4C78.4697 51.2333 80.0363 48.05 81.6363 44.85C83.2363 41.65 84.8197 38.6 86.3863 35.7C86.953 34.7 87.4697 33.9167 87.9363 33.35C88.4363 32.7833 89.0863 32.5 89.8863 32.5C90.1863 32.5 90.5363 32.55 90.9363 32.65C91.3363 32.75 91.7197 32.7667 92.0863 32.7C91.653 33.1667 91.053 33.9833 90.2863 35.15C89.553 36.3167 88.7197 37.7167 87.7863 39.35C86.8863 40.9833 85.9197 42.75 84.8863 44.65C83.8863 46.5167 82.8863 48.4167 81.8863 50.35C80.9197 52.25 80.0197 54.0333 79.1863 55.7C79.853 54.8333 80.5363 54.0167 81.2363 53.25C81.9363 52.4833 82.6197 51.8167 83.2863 51.25C84.0197 50.5833 84.9363 49.8833 86.0363 49.15C87.1697 48.4167 88.2863 47.7833 89.3863 47.25C90.5197 46.7167 91.4197 46.45 92.0863 46.45C92.3197 46.45 92.4863 46.4667 92.5863 46.5C92.5863 46.5 92.403 46.8333 92.0363 47.5C91.6697 48.1667 91.203 49.0167 90.6363 50.05C90.103 51.0833 89.5363 52.2 88.9363 53.4C88.3697 54.6 87.8697 55.75 87.4363 56.85C87.003 57.9167 86.7197 58.8 86.5863 59.5C86.4863 60.0333 86.4363 60.4833 86.4363 60.85C86.4363 61.3833 86.5363 61.75 86.7363 61.95C86.9363 62.1167 87.153 62.2 87.3863 62.2C87.953 62.2 88.553 61.9167 89.1863 61.35C89.853 60.75 90.503 60 91.1363 59.1C91.7697 58.2 92.353 57.25 92.8863 56.25C93.453 55.2167 93.903 54.25 94.2363 53.35C94.6363 53.35 94.8363 53.5 94.8363 53.8C94.4697 54.7 94.003 55.7 93.4363 56.8C92.903 57.8667 92.2863 58.8833 91.5863 59.85C90.8863 60.8167 90.1197 61.6167 89.2863 62.25C88.453 62.8833 87.5697 63.2 86.6363 63.2C85.9697 63.2 85.2863 62.9667 84.5863 62.5C83.8863 62.0333 83.5363 61.1833 83.5363 59.95C83.5363 59.5833 83.5697 59.2 83.6363 58.8C83.703 58.3667 83.8197 57.8833 83.9863 57.35C84.1863 56.6833 84.5197 55.95 84.9863 55.15C85.453 54.3167 86.053 53.2833 86.7863 52.05C87.1197 51.4833 87.2863 51.0333 87.2863 50.7C87.2863 50.3 87.0863 50.1 86.6863 50.1C86.353 50.1 85.903 50.2667 85.3363 50.6C84.7697 50.9333 84.053 51.5167 83.1863 52.35C82.353 53.15 81.3197 54.3167 80.0863 55.85C78.853 57.3833 77.5363 59.5333 76.1363 62.3C75.903 62.7333 75.6363 62.9667 75.3363 63C75.0697 63 74.703 63.0167 74.2363 63.05C73.9363 63.0833 73.6363 63.1 73.3363 63.1C73.0363 63.1333 72.7863 63.2333 72.5863 63.4ZM96.5832 63.75C96.0499 63.75 95.6165 63.5833 95.2832 63.25C94.9499 62.9167 94.7832 62.5 94.7832 62C94.7832 61.3333 95.0332 60.7667 95.5332 60.3C96.0665 59.8333 96.6332 59.6 97.2332 59.6C97.7665 59.6 98.1999 59.7667 98.5332 60.1C98.8665 60.4 99.0332 60.8 99.0332 61.3C99.0332 61.9333 98.7832 62.5 98.2832 63C97.7832 63.5 97.2165 63.75 96.5832 63.75Z" fill="black"/>
</g>
<defs>
<clipPath id="clip0_243_45">
<rect width="101" height="101" fill="white" transform="translate(0.5 0.5)"/>
</clipPath>
</defs>
</svg>
