<svg width="304" height="76" viewBox="0 0 304 76" fill="none" xmlns="http://www.w3.org/2000/svg">
<path d="M81.0996 36.3734C81.0996 34.9631 79.958 33.8198 78.5498 33.8198C77.1416 33.8198 76 34.9631 76 36.3734V39.6262C76 41.0366 77.1416 42.1798 78.5498 42.1798C79.958 42.1798 81.0996 41.0366 81.0996 39.6262V36.3734Z" fill="white"/>
<path d="M90.5388 25.7338C90.5388 24.3234 89.3972 23.1802 87.989 23.1802C86.5808 23.1802 85.4392 24.3234 85.4392 25.7338V50.2666C85.4392 51.6769 86.5808 52.8202 87.989 52.8202C89.3972 52.8202 90.5388 51.6769 90.5388 50.2666V25.7338Z" fill="white"/>
<path d="M99.978 20.4137C99.978 19.0034 98.8364 17.8601 97.4282 17.8601C96.02 17.8601 94.8784 19.0034 94.8784 20.4137V55.5865C94.8784 56.9968 96.02 58.1401 97.4282 58.1401C98.8364 58.1401 99.978 56.9968 99.978 55.5865V20.4137Z" fill="white"/>
<path d="M109.425 20.4137C109.425 19.0034 108.283 17.8601 106.875 17.8601C105.467 17.8601 104.325 19.0034 104.325 20.4137V55.5865C104.325 56.9968 105.467 58.1401 106.875 58.1401C108.283 58.1401 109.425 56.9968 109.425 55.5865V20.4137Z" fill="white"/>
<path d="M118.864 17.7536C118.864 16.3432 117.722 15.2 116.314 15.2C114.906 15.2 113.764 16.3432 113.764 17.7536V58.2463C113.764 59.6567 114.906 60.7999 116.314 60.7999C117.722 60.7999 118.864 59.6567 118.864 58.2463V17.7536Z" fill="white"/>
<path d="M128.303 17.7536C128.303 16.3432 127.162 15.2 125.753 15.2C124.345 15.2 123.204 16.3432 123.204 17.7536V58.2463C123.204 59.6567 124.345 60.7999 125.753 60.7999C127.162 60.7999 128.303 59.6567 128.303 58.2463V17.7536Z" fill="white"/>
<path d="M137.742 20.4137C137.742 19.0034 136.601 17.8601 135.193 17.8601C133.784 17.8601 132.643 19.0034 132.643 20.4137V55.5865C132.643 56.9968 133.784 58.1401 135.193 58.1401C136.601 58.1401 137.742 56.9968 137.742 55.5865V20.4137Z" fill="white"/>
<path d="M147.189 23.0736C147.189 21.6633 146.048 20.52 144.639 20.52C143.231 20.52 142.09 21.6633 142.09 23.0736V52.9264C142.09 54.3367 143.231 55.48 144.639 55.48C146.048 55.48 147.189 54.3367 147.189 52.9264V23.0736Z" fill="white"/>
<path d="M156.628 36.3734C156.628 34.9631 155.487 33.8198 154.079 33.8198C152.67 33.8198 151.529 34.9631 151.529 36.3734V39.6262C151.529 41.0366 152.67 42.1798 154.079 42.1798C155.487 42.1798 156.628 41.0366 156.628 39.6262V36.3734Z" fill="white"/>
<path d="M166.068 33.7135C166.068 32.3032 164.926 31.1599 163.518 31.1599C162.11 31.1599 160.968 32.3032 160.968 33.7135V42.2863C160.968 43.6966 162.11 44.8399 163.518 44.8399C164.926 44.8399 166.068 43.6966 166.068 42.2863V33.7135Z" fill="white"/>
<path d="M175.507 28.3937C175.507 26.9834 174.365 25.8401 172.957 25.8401C171.549 25.8401 170.407 26.9834 170.407 28.3937V47.6065C170.407 49.0168 171.549 50.1601 172.957 50.1601C174.365 50.1601 175.507 49.0168 175.507 47.6065V28.3937Z" fill="white"/>
<path d="M184.946 17.7536C184.946 16.3432 183.804 15.2 182.396 15.2C180.988 15.2 179.846 16.3432 179.846 17.7536V58.2463C179.846 59.6567 180.988 60.7999 182.396 60.7999C183.804 60.7999 184.946 59.6567 184.946 58.2463V17.7536Z" fill="white"/>
<path d="M194.393 28.3937C194.393 26.9834 193.251 25.8401 191.843 25.8401C190.435 25.8401 189.293 26.9834 189.293 28.3937V47.6065C189.293 49.0168 190.435 50.1601 191.843 50.1601C193.251 50.1601 194.393 49.0168 194.393 47.6065V28.3937Z" fill="white"/>
<path d="M203.832 31.0536C203.832 29.6433 202.69 28.5 201.282 28.5C199.874 28.5 198.732 29.6433 198.732 31.0536V44.9464C198.732 46.3567 199.874 47.5 201.282 47.5C202.69 47.5 203.832 46.3567 203.832 44.9464V31.0536Z" fill="white"/>
<path d="M213.271 28.3937C213.271 26.9834 212.13 25.8401 210.721 25.8401C209.313 25.8401 208.172 26.9834 208.172 28.3937V47.6065C208.172 49.0168 209.313 50.1601 210.721 50.1601C212.13 50.1601 213.271 49.0168 213.271 47.6065V28.3937Z" fill="white"/>
<path d="M222.71 17.7536C222.71 16.3432 221.569 15.2 220.161 15.2C218.752 15.2 217.611 16.3432 217.611 17.7536V58.2463C217.611 59.6567 218.752 60.7999 220.161 60.7999C221.569 60.7999 222.71 59.6567 222.71 58.2463V17.7536Z" fill="white"/>
<path d="M232.157 25.7338C232.157 24.3234 231.016 23.1802 229.607 23.1802C228.199 23.1802 227.058 24.3234 227.058 25.7338V50.2666C227.058 51.6769 228.199 52.8202 229.607 52.8202C231.016 52.8202 232.157 51.6769 232.157 50.2666V25.7338Z" fill="white"/>
<path d="M241.596 17.7536C241.596 16.3432 240.455 15.2 239.047 15.2C237.638 15.2 236.497 16.3432 236.497 17.7536V58.2463C236.497 59.6567 237.638 60.7999 239.047 60.7999C240.455 60.7999 241.596 59.6567 241.596 58.2463V17.7536Z" fill="white"/>
<path d="M251.036 33.7135C251.036 32.3032 249.894 31.1599 248.486 31.1599C247.078 31.1599 245.936 32.3032 245.936 33.7135V42.2863C245.936 43.6966 247.078 44.8399 248.486 44.8399C249.894 44.8399 251.036 43.6966 251.036 42.2863V33.7135Z" fill="white"/>
<path d="M260.475 28.3937C260.475 26.9834 259.333 25.8401 257.925 25.8401C256.517 25.8401 255.375 26.9834 255.375 28.3937V47.6065C255.375 49.0168 256.517 50.1601 257.925 50.1601C259.333 50.1601 260.475 49.0168 260.475 47.6065V28.3937Z" fill="white"/>
<path d="M269.914 17.7536C269.914 16.3432 268.772 15.2 267.364 15.2C265.956 15.2 264.814 16.3432 264.814 17.7536V58.2463C264.814 59.6567 265.956 60.7999 267.364 60.7999C268.772 60.7999 269.914 59.6567 269.914 58.2463V17.7536Z" fill="white"/>
<path d="M279.361 23.0736C279.361 21.6633 278.219 20.52 276.811 20.52C275.403 20.52 274.261 21.6633 274.261 23.0736V52.9264C274.261 54.3367 275.403 55.48 276.811 55.48C278.219 55.48 279.361 54.3367 279.361 52.9264V23.0736Z" fill="white"/>
<path d="M288.8 36.3734C288.8 34.9631 287.658 33.8198 286.25 33.8198C284.842 33.8198 283.7 34.9631 283.7 36.3734V39.6262C283.7 41.0366 284.842 42.1798 286.25 42.1798C287.658 42.1798 288.8 41.0366 288.8 39.6262V36.3734Z" fill="white"/>
<path d="M38 15.2C42.5094 15.2 46.9176 16.5371 50.667 19.0424C54.4165 21.5477 57.3388 25.1086 59.0645 29.2748C60.7901 33.4409 61.2417 38.0252 60.3619 42.448C59.4822 46.8708 57.3107 50.9334 54.122 54.122C50.9334 57.3106 46.8708 59.4821 42.4481 60.3619C38.0253 61.2416 33.441 60.7901 29.2748 59.0644C25.1087 57.3387 21.5478 54.4164 19.0425 50.667C16.5372 46.9175 15.2 42.5094 15.2 38C15.2 31.953 17.6021 26.1537 21.878 21.8779C26.1538 17.6021 31.9531 15.2 38 15.2ZM48.4348 48.032C48.6139 47.7344 48.6765 47.381 48.6105 47.04C48.5446 46.699 48.3547 46.3945 48.0776 46.1852C47.9606 46.0997 47.8388 46.0211 47.7128 45.9496C46.2908 45.1025 44.7826 44.4096 43.2136 43.8824C40.3776 42.9539 37.4121 42.4819 34.428 42.484C33.4172 42.5372 32.3988 42.5751 31.388 42.6587C29.5771 42.8193 27.7793 43.1037 26.0072 43.5099C25.8673 43.5391 25.7301 43.5798 25.5968 43.6315C25.2924 43.7533 25.0409 43.9788 24.8865 44.268C24.7322 44.5572 24.685 44.8916 24.7532 45.2123C24.8045 45.5364 24.9712 45.8311 25.2226 46.042C25.474 46.2529 25.7931 46.3658 26.1212 46.36C26.3467 46.3528 26.5708 46.3221 26.79 46.2687C28.9534 45.7817 31.1561 45.4892 33.3716 45.3947C35.0867 45.3242 36.8045 45.4184 38.5016 45.6759C41.2512 46.0784 43.8966 47.0102 46.2916 48.4196C46.4141 48.4954 46.541 48.564 46.6716 48.6248C46.9847 48.7624 47.3372 48.7812 47.6631 48.6777C47.9891 48.5742 48.2661 48.3554 48.4424 48.0624M51.2316 41.7999C51.4709 41.3988 51.5428 40.9199 51.4319 40.4663C51.321 40.0127 51.0361 39.6208 50.6388 39.3755L50.3728 39.216C48.6041 38.1703 46.7225 37.329 44.764 36.708C40.9123 35.473 36.8735 34.9249 32.832 35.0891C30.9426 35.1521 29.0628 35.3861 27.2156 35.7883C26.4556 35.9555 25.6956 36.1532 24.9812 36.3736C24.6348 36.4828 24.3319 36.6991 24.1162 36.9914C23.9004 37.2836 23.7829 37.6367 23.7804 38C23.7722 38.3566 23.8725 38.7074 24.0679 39.006C24.2633 39.3045 24.5446 39.5367 24.8748 39.672C25.285 39.8193 25.7338 39.8193 26.144 39.672C28.7076 38.9296 31.3639 38.556 34.0328 38.5624C36.0497 38.5639 38.0622 38.7522 40.0444 39.1248C42.5742 39.579 45.0259 40.3928 47.3252 41.5415C47.8268 41.7999 48.3132 42.0888 48.8072 42.3624C49.2041 42.6064 49.6811 42.6841 50.1349 42.5788C50.5887 42.4735 50.9827 42.1937 51.2316 41.7999ZM51.4976 35.3475C51.82 35.5436 52.189 35.6502 52.5663 35.6562C52.9436 35.6621 53.3157 35.5672 53.6442 35.3813C53.9726 35.1954 54.2454 34.9252 54.4346 34.5987C54.6237 34.2721 54.7222 33.9009 54.72 33.5236C54.72 33.3716 54.72 33.2196 54.6592 33.0676C54.5936 32.7704 54.4645 32.4908 54.2809 32.2482C54.0973 32.0055 53.8634 31.8055 53.5952 31.6616C52.0477 30.7666 50.416 30.0258 48.7236 29.45C44.5895 28.0682 40.2683 27.3274 35.91 27.2536C34.1351 27.2004 32.3586 27.2537 30.59 27.4132C28.9229 27.5533 27.2673 27.8072 25.6348 28.1732C24.9736 28.3252 24.32 28.4924 23.674 28.7052C23.2519 28.8486 22.8873 29.1241 22.6341 29.491C22.3808 29.8578 22.2525 30.2965 22.268 30.742C22.2786 31.191 22.4316 31.625 22.7047 31.9815C22.9779 32.338 23.3572 32.5985 23.788 32.7256C24.1853 32.8396 24.6067 32.8396 25.004 32.7256C25.6652 32.5508 26.334 32.3683 27.0028 32.2239C28.8205 31.8456 30.6656 31.6145 32.5204 31.5324C34.1405 31.4419 35.7643 31.4419 37.3844 31.5324C38.9415 31.6259 40.4919 31.8086 42.028 32.0796C44.2347 32.4505 46.3971 33.049 48.4804 33.8656C49.5267 34.3034 50.5423 34.8112 51.5204 35.3856" fill="white"/>
</svg>
