<svg width="128" height="128" viewBox="0 0 128 128" fill="none" xmlns="http://www.w3.org/2000/svg">
<path d="M108.524 24.2366C108.489 24.1676 108.43 24.1136 108.358 24.0842C100.059 20.2765 91.301 17.5614 82.3036 16.0067C82.2219 15.9915 82.1374 16.0024 82.0622 16.038C81.9871 16.0736 81.9251 16.1319 81.885 16.2048C80.6924 18.3692 79.6099 20.5924 78.6414 22.866C68.9427 21.3937 59.0773 21.3937 49.3785 22.866C48.4037 20.5867 47.3038 18.3629 46.0838 16.2048C46.042 16.1335 45.9797 16.0765 45.905 16.0411C45.8302 16.0058 45.7466 15.9938 45.665 16.0067C36.6666 17.5581 27.9083 20.2735 19.6104 24.0844C19.5393 24.1145 19.4794 24.1659 19.4388 24.2316C2.84472 49.0127 -1.70104 73.1846 0.528951 97.0571C0.535225 97.1156 0.5532 97.1722 0.581809 97.2236C0.610417 97.2751 0.649075 97.3202 0.695482 97.3564C10.3581 104.511 21.1658 109.972 32.6575 113.506C32.7384 113.531 32.8248 113.53 32.9051 113.503C32.9854 113.477 33.0557 113.427 33.1066 113.359C35.5747 110.001 37.7617 106.445 39.6453 102.727C39.6712 102.676 39.6859 102.62 39.6886 102.563C39.6913 102.506 39.6819 102.449 39.6609 102.395C39.64 102.342 39.608 102.294 39.567 102.254C39.5261 102.214 39.4772 102.183 39.4235 102.164C35.9748 100.844 32.636 99.2534 29.4385 97.4065C29.3805 97.3723 29.3317 97.3244 29.2965 97.2669C29.2613 97.2095 29.2409 97.1442 29.2369 97.077C29.2329 97.0097 29.2455 96.9425 29.2737 96.8813C29.3018 96.8201 29.3446 96.7667 29.3983 96.726C30.0692 96.2233 30.7405 95.7004 31.3812 95.1723C31.4381 95.1255 31.507 95.0954 31.5801 95.0856C31.6531 95.0757 31.7275 95.0865 31.7948 95.1166C52.7427 104.677 75.4216 104.677 96.1215 95.1166C96.189 95.0845 96.2642 95.0723 96.3383 95.0813C96.4125 95.0902 96.4825 95.1201 96.5404 95.1673C97.1812 95.6954 97.8524 96.2233 98.5283 96.726C98.5822 96.7663 98.6254 96.8193 98.654 96.8803C98.6826 96.9413 98.6957 97.0084 98.6923 97.0756C98.6888 97.1429 98.6688 97.2083 98.634 97.266C98.5993 97.3237 98.5509 97.3719 98.493 97.4065C95.3028 99.2689 91.9611 100.859 88.5033 102.159C88.4497 102.179 88.4009 102.211 88.3602 102.251C88.3195 102.292 88.2879 102.34 88.2674 102.394C88.2468 102.448 88.2378 102.505 88.241 102.562C88.2441 102.62 88.2594 102.676 88.2857 102.727C90.2008 106.424 92.3845 109.976 94.8193 113.353C94.8688 113.423 94.9387 113.475 95.0193 113.502C95.0999 113.529 95.1871 113.531 95.2684 113.506C106.781 109.983 117.607 104.522 127.282 97.3564C127.329 97.322 127.368 97.278 127.397 97.2272C127.426 97.1765 127.443 97.1202 127.449 97.0621C130.118 69.463 122.979 45.4892 108.524 24.2366ZM42.7737 82.5212C36.4668 82.5212 31.2702 76.7335 31.2702 69.6256C31.2702 62.5176 36.366 56.7295 42.7737 56.7295C49.2314 56.7295 54.3777 62.5679 54.2769 69.6251C54.2769 76.7335 49.1809 82.5212 42.7737 82.5212ZM85.3055 82.5212C78.9989 82.5212 73.8022 76.7335 73.8022 69.6256C73.8022 62.5176 78.8981 56.7295 85.3055 56.7295C91.7637 56.7295 96.9098 62.5679 96.809 69.6251C96.809 76.7335 91.7637 82.5212 85.3055 82.5212Z" fill="white"/>
</svg>
