<svg width="33" height="25" viewBox="0 0 33 25" fill="none" xmlns="http://www.w3.org/2000/svg">
<path d="M27.831 2.06866C27.8221 2.05143 27.8073 2.03792 27.7894 2.03057C25.7147 1.07865 23.5252 0.399864 21.2759 0.0111865C21.2554 0.00738721 21.2343 0.010128 21.2155 0.0190191C21.1967 0.0279102 21.1812 0.0424989 21.1712 0.0607104C20.8731 0.601822 20.6024 1.15763 20.3603 1.72602C17.9356 1.35796 15.4693 1.35796 13.0446 1.72602C12.8009 1.15619 12.5259 0.60024 12.2209 0.0607104C12.2104 0.0428947 12.1949 0.028642 12.1762 0.0198086C12.1575 0.0109753 12.1366 0.00797075 12.1162 0.0111865C9.8666 0.399048 7.67702 1.07789 5.60255 2.03062C5.58479 2.03815 5.5698 2.05101 5.55966 2.06741C1.41113 8.2627 0.27469 14.3057 0.832189 20.2738C0.833757 20.2884 0.838251 20.3026 0.845403 20.3154C0.852556 20.3283 0.86222 20.3396 0.873822 20.3486C3.28947 22.1372 5.99141 23.5025 8.86433 24.3861C8.88456 24.3922 8.90616 24.3919 8.92623 24.3854C8.94631 24.3788 8.96388 24.3662 8.9766 24.3493C9.59364 23.5098 10.1404 22.6207 10.6113 21.6913C10.6177 21.6785 10.6214 21.6645 10.6221 21.6502C10.6228 21.636 10.6204 21.6217 10.6152 21.6084C10.6099 21.5951 10.6019 21.583 10.5917 21.573C10.5815 21.563 10.5692 21.5553 10.5558 21.5504C9.69364 21.2205 8.85895 20.8229 8.05959 20.3611C8.04507 20.3526 8.03287 20.3406 8.02408 20.3263C8.01529 20.3119 8.01017 20.2956 8.00917 20.2788C8.00818 20.2619 8.01134 20.2451 8.01837 20.2298C8.02541 20.2145 8.03611 20.2012 8.04952 20.191C8.21725 20.0654 8.38509 19.9346 8.54525 19.8026C8.55948 19.7909 8.5767 19.7834 8.59497 19.7809C8.61324 19.7784 8.63183 19.7811 8.64865 19.7887C13.8856 22.1787 19.5554 22.1787 24.7303 19.7887C24.7472 19.7807 24.766 19.7776 24.7845 19.7798C24.8031 19.7821 24.8206 19.7895 24.835 19.8014C24.9953 19.9334 25.163 20.0654 25.332 20.191C25.3455 20.2011 25.3563 20.2144 25.3635 20.2296C25.3706 20.2448 25.3739 20.2616 25.373 20.2784C25.3721 20.2952 25.3671 20.3116 25.3585 20.326C25.3498 20.3404 25.3377 20.3525 25.3232 20.3611C24.5257 20.8267 23.6902 21.2242 22.8258 21.5492C22.8124 21.5543 22.8002 21.5622 22.79 21.5723C22.7798 21.5825 22.7719 21.5946 22.7668 21.608C22.7617 21.6215 22.7594 21.6358 22.7602 21.6501C22.761 21.6645 22.7648 21.6785 22.7714 21.6913C23.2501 22.6156 23.7961 23.5035 24.4048 24.3479C24.4171 24.3652 24.4346 24.3782 24.4548 24.385C24.4749 24.3919 24.4967 24.3922 24.5171 24.386C27.3951 23.5053 30.1018 22.1399 32.5205 20.3486C32.5322 20.34 32.542 20.329 32.5492 20.3163C32.5564 20.3036 32.5608 20.2896 32.5621 20.275C33.2295 13.3753 31.4447 7.38183 27.831 2.06866ZM11.3934 16.6398C9.81666 16.6398 8.51749 15.1929 8.51749 13.4159C8.51749 11.6389 9.79146 10.1919 11.3934 10.1919C13.0078 10.1919 14.2944 11.6515 14.2692 13.4158C14.2692 15.1929 12.9952 16.6398 11.3934 16.6398ZM22.0263 16.6398C20.4497 16.6398 19.1505 15.1929 19.1505 13.4159C19.1505 11.6389 20.4245 10.1919 22.0263 10.1919C23.6409 10.1919 24.9274 11.6515 24.9022 13.4158C24.9022 15.1929 23.6409 16.6398 22.0263 16.6398Z" fill="white"/>
</svg>
