<svg width="20" height="20" viewBox="0 0 20 20" fill="none" xmlns="http://www.w3.org/2000/svg">
<path d="M16.9569 3.78696C16.9513 3.77619 16.9421 3.76775 16.9309 3.76315C15.6342 3.16821 14.2658 2.74396 12.8599 2.50104C12.8472 2.49867 12.834 2.50038 12.8222 2.50594C12.8105 2.51149 12.8008 2.52061 12.7945 2.53199C12.6082 2.87019 12.439 3.21757 12.2877 3.57281C10.7723 3.34277 9.23083 3.34277 7.7154 3.57281C7.56307 3.21667 7.39121 2.8692 7.2006 2.53199C7.19406 2.52086 7.18432 2.51195 7.17265 2.50643C7.16098 2.50091 7.14791 2.49903 7.13516 2.50104C5.72916 2.74345 4.36066 3.16773 3.06412 3.76319C3.05302 3.76789 3.04366 3.77593 3.03732 3.78618C0.444487 7.65824 -0.265788 11.4351 0.0826486 15.1652C0.0836288 15.1743 0.0864375 15.1832 0.0909076 15.1912C0.0953777 15.1992 0.101418 15.2063 0.108669 15.2119C1.61845 16.3298 3.30716 17.1831 5.10273 17.7354C5.11538 17.7392 5.12888 17.739 5.14143 17.7349C5.15397 17.7308 5.16496 17.7229 5.1729 17.7124C5.55855 17.1877 5.90027 16.632 6.19457 16.0511C6.19862 16.0431 6.20093 16.0344 6.20135 16.0255C6.20177 16.0165 6.20029 16.0076 6.19702 15.9993C6.19375 15.991 6.18875 15.9834 6.18235 15.9772C6.17595 15.971 6.16831 15.9661 6.15991 15.9631C5.62105 15.7569 5.09938 15.5083 4.59977 15.2198C4.5907 15.2144 4.58308 15.2069 4.57758 15.198C4.57208 15.189 4.56888 15.1788 4.56826 15.1683C4.56764 15.1578 4.56962 15.1473 4.57401 15.1377C4.57841 15.1281 4.5851 15.1198 4.59348 15.1134C4.69831 15.0349 4.80321 14.9532 4.90331 14.8707C4.9122 14.8634 4.92297 14.8587 4.93438 14.8571C4.9458 14.8556 4.95742 14.8573 4.96794 14.862C8.24104 16.3558 11.7846 16.3558 15.019 14.862C15.0295 14.857 15.0413 14.855 15.0529 14.8564C15.0644 14.8578 15.0754 14.8625 15.0844 14.8699C15.1846 14.9524 15.2894 15.0349 15.395 15.1134C15.4035 15.1197 15.4102 15.128 15.4147 15.1375C15.4192 15.1471 15.4212 15.1576 15.4207 15.1681C15.4201 15.1786 15.417 15.1888 15.4116 15.1978C15.4061 15.2068 15.3986 15.2144 15.3895 15.2198C14.8911 15.5108 14.3689 15.7592 13.8286 15.9623C13.8203 15.9655 13.8126 15.9704 13.8063 15.9767C13.7999 15.9831 13.795 15.9907 13.7918 15.9991C13.7886 16.0075 13.7872 16.0164 13.7877 16.0254C13.7881 16.0344 13.7905 16.0431 13.7946 16.0511C14.0939 16.6288 14.4351 17.1837 14.8155 17.7115C14.8232 17.7223 14.8342 17.7304 14.8468 17.7347C14.8594 17.739 14.873 17.7392 14.8857 17.7353C16.6845 17.1849 18.3761 16.3315 19.8878 15.2119C19.8952 15.2066 19.9013 15.1997 19.9058 15.1918C19.9103 15.1838 19.913 15.175 19.9138 15.1659C20.331 10.8536 19.2155 7.10769 16.9569 3.78696ZM6.68339 12.8939C5.69794 12.8939 4.88596 11.9896 4.88596 10.879C4.88596 9.76838 5.68219 8.86399 6.68339 8.86399C7.6924 8.86399 8.49652 9.77624 8.48077 10.8789C8.48077 11.9896 7.68451 12.8939 6.68339 12.8939ZM13.329 12.8939C12.3436 12.8939 11.5316 11.9896 11.5316 10.879C11.5316 9.76838 12.3278 8.86399 13.329 8.86399C14.3381 8.86399 15.1422 9.77624 15.1264 10.8789C15.1264 11.9896 14.3381 12.8939 13.329 12.8939Z" fill="white"/>
</svg>
