<svg width="20" height="20" viewBox="0 0 20 20" fill="none" xmlns="http://www.w3.org/2000/svg">
<g clip-path="url(#clip0_195_2)">
<path d="M10 0.247451C4.47563 0.247451 0 4.72683 0 10.2475C0 14.6681 2.865 18.415 6.83563 19.7368C7.3375 19.8312 7.51875 19.5218 7.51875 19.2543C7.51875 19.0168 7.51313 18.3887 7.50938 17.555C4.72625 18.1575 4.14 16.2106 4.14 16.2106C3.68438 15.0581 3.02687 14.7487 3.02687 14.7487C2.12187 14.1306 3.09875 14.1437 3.09875 14.1437C4.10125 14.2118 4.62875 15.1718 4.62875 15.1718C5.52063 16.7018 6.96875 16.2593 7.54188 16.0018C7.62938 15.3575 7.89 14.9143 8.17375 14.6675C5.95375 14.4168 3.61937 13.5575 3.61937 9.72558C3.61937 8.6312 4.00687 7.73995 4.6475 7.03995C4.53687 6.78933 4.19813 5.77058 4.73563 4.39308C4.73563 4.39308 5.5725 4.1262 7.48563 5.4187C8.28625 5.19683 9.13625 5.0862 9.98563 5.08058C10.8356 5.0862 11.685 5.19745 12.4856 5.4187C14.3875 4.1262 15.2237 4.39308 15.2237 4.39308C15.7606 5.77058 15.4219 6.7887 15.3244 7.03995C15.9587 7.73995 16.3462 8.63183 16.3462 9.72558C16.3462 13.5662 14.0087 14.4131 11.7862 14.6575C12.1337 14.9568 12.4594 15.5725 12.4594 16.5068C12.4594 17.8443 12.4469 18.9218 12.4469 19.2475C12.4469 19.5075 12.6219 19.82 13.1369 19.7193C17.1369 18.4112 19.9987 14.6612 19.9987 10.2468C19.9987 4.7262 15.5231 0.246826 9.99875 0.246826L10 0.247451Z" fill="white"/>
</g>
<defs>
<clipPath id="clip0_195_2">
<rect width="20" height="20" fill="white"/>
</clipPath>
</defs>
</svg>
