<svg width="128" height="128" viewBox="0 0 128 128" fill="none" xmlns="http://www.w3.org/2000/svg">
<path d="M64 1.58408C28.644 1.58408 0 30.2521 0 65.5841C0 93.8761 18.336 117.856 43.748 126.316C46.96 126.92 48.12 124.94 48.12 123.228C48.12 121.708 48.084 117.688 48.06 112.352C30.248 116.208 26.496 103.748 26.496 103.748C23.58 96.3721 19.372 94.3921 19.372 94.3921C13.58 90.4361 19.832 90.5201 19.832 90.5201C26.248 90.9561 29.624 97.1001 29.624 97.1001C35.332 106.892 44.6 104.06 48.268 102.412C48.828 98.2881 50.496 95.4521 52.312 93.8721C38.104 92.2681 23.164 86.7681 23.164 62.2441C23.164 55.2401 25.644 49.5361 29.744 45.0561C29.036 43.4521 26.868 36.9321 30.308 28.1161C30.308 28.1161 35.664 26.4081 47.908 34.6801C53.032 33.2601 58.472 32.5521 63.908 32.5161C69.348 32.5521 74.784 33.2641 79.908 34.6801C92.08 26.4081 97.432 28.1161 97.432 28.1161C100.868 36.9321 98.7 43.4481 98.076 45.0561C102.136 49.5361 104.616 55.2441 104.616 62.2441C104.616 86.8241 89.656 92.2441 75.432 93.8081C77.656 95.7241 79.74 99.6641 79.74 105.644C79.74 114.204 79.66 121.1 79.66 123.184C79.66 124.848 80.78 126.848 84.076 126.204C109.676 117.832 127.992 93.8321 127.992 65.5801C127.992 30.2481 99.348 1.58008 63.992 1.58008L64 1.58408Z" fill="white"/>
</svg>
