<svg width="32" height="32" viewBox="0 0 32 32" fill="none" xmlns="http://www.w3.org/2000/svg">
<path fill-rule="evenodd" clip-rule="evenodd" d="M15.9993 2.66699C8.63268 2.66699 2.66602 8.63366 2.66602 16.0003C2.66602 21.9003 6.48268 26.8837 11.7827 28.6503C12.4493 28.767 12.6993 28.367 12.6993 28.017C12.6993 27.7003 12.6827 26.6503 12.6827 25.5337C9.33268 26.1503 8.46602 24.717 8.19935 23.967C8.04935 23.5837 7.39935 22.4003 6.83268 22.0837C6.36602 21.8337 5.69935 21.217 6.81602 21.2003C7.86602 21.1837 8.61602 22.167 8.86602 22.567C10.066 24.5837 11.9827 24.017 12.7493 23.667C12.866 22.8003 13.216 22.217 13.5993 21.8837C10.6327 21.5503 7.53268 20.4003 7.53268 15.3003C7.53268 13.8503 8.04935 12.6503 8.89935 11.717C8.76602 11.3837 8.29935 10.017 9.03268 8.18366C9.03268 8.18366 10.1493 7.83366 12.6993 9.55033C13.766 9.25033 14.8994 9.10033 16.0327 9.10033C17.166 9.10033 18.2994 9.25033 19.366 9.55033C21.916 7.81699 23.0327 8.18366 23.0327 8.18366C23.766 10.017 23.2994 11.3837 23.166 11.717C24.016 12.6503 24.5327 13.8337 24.5327 15.3003C24.5327 20.417 21.416 21.5503 18.4494 21.8837C18.9327 22.3003 19.3494 23.1003 19.3494 24.3503C19.3494 26.1337 19.3327 27.567 19.3327 28.017C19.3327 28.367 19.5827 28.7837 20.2494 28.6503C22.8963 27.7568 25.1963 26.0556 26.8257 23.7864C28.4552 21.5171 29.332 18.794 29.3327 16.0003C29.3327 8.63366 23.366 2.66699 15.9993 2.66699Z" fill="white"/>
</svg>
