<svg width="32" height="32" viewBox="0 0 32 32" fill="none" xmlns="http://www.w3.org/2000/svg">
<g clip-path="url(#clip0_201_7)">
<path fill-rule="evenodd" clip-rule="evenodd" d="M26.4608 7.45925C26.4608 8.51975 25.601 9.37925 24.5408 9.37925C23.4805 9.37925 22.6208 8.51975 22.6208 7.45925C22.6208 6.39875 23.4805 5.53925 24.5408 5.53925C25.6013 5.53925 26.4608 6.39875 26.4608 7.45925ZM16 21.3333C13.0545 21.3333 10.6667 18.9455 10.6667 16C10.6667 13.0545 13.0545 10.6667 16 10.6667C18.9455 10.6667 21.3333 13.0545 21.3333 16C21.3333 18.9455 18.9455 21.3333 16 21.3333ZM16 7.78375C11.4623 7.78375 7.78375 11.4623 7.78375 16C7.78375 20.5377 11.4623 24.2162 16 24.2162C20.5377 24.2162 24.2162 20.5377 24.2162 16C24.2162 11.4623 20.5377 7.78375 16 7.78375ZM16 2.883C20.2723 2.883 20.7782 2.89925 22.4653 2.97625C24.0252 3.0475 24.8725 3.308 25.4363 3.52725C26.183 3.8175 26.716 4.16425 27.276 4.72425C27.836 5.284 28.1827 5.817 28.473 6.564C28.692 7.12775 28.9528 7.975 29.024 9.535C29.101 11.2222 29.1173 11.7282 29.1173 16.0005C29.1173 20.2727 29.101 20.7787 29.024 22.4657C28.9528 24.0257 28.6922 24.873 28.473 25.4368C28.1827 26.1835 27.836 26.7165 27.276 27.2765C26.7162 27.8365 26.1833 28.1832 25.4363 28.4735C24.8725 28.6925 24.0252 28.9532 22.4653 29.0245C20.7782 29.1015 20.2723 29.1178 16 29.1178C11.7275 29.1178 11.2215 29.1015 9.5345 29.0245C7.9745 28.9532 7.12725 28.6927 6.5635 28.4735C5.81675 28.1832 5.28375 27.8365 4.72375 27.2765C4.164 26.7168 3.817 26.1838 3.52675 25.4368C3.30775 24.873 3.047 24.0257 2.97575 22.4657C2.89875 20.7785 2.8825 20.2725 2.8825 16.0005C2.8825 11.7282 2.89875 11.2222 2.97575 9.535C3.047 7.975 3.3075 7.12775 3.52675 6.564C3.817 5.81725 4.16375 5.28425 4.72375 4.72425C5.2835 4.16425 5.8165 3.8175 6.5635 3.52725C7.12725 3.30825 7.9745 3.0475 9.5345 2.97625C11.2218 2.89925 11.7277 2.883 16 2.883ZM16 0C11.6547 0 11.1097 0.0185 9.40325 0.09625C7.70025 0.174 6.537 0.4445 5.5195 0.84C4.46725 1.24875 3.575 1.796 2.6855 2.6855C1.796 3.575 1.24875 4.46725 0.84 5.5195C0.4445 6.53725 0.174 7.70025 0.09625 9.40325C0.0185 11.1097 0 11.6547 0 16C0 20.3453 0.0185 20.8903 0.09625 22.5968C0.174 24.2998 0.4445 25.4627 0.84 26.4805C1.24875 27.5327 1.796 28.425 2.6855 29.3145C3.575 30.204 4.46725 30.751 5.5195 31.16C6.53725 31.5555 7.70025 31.826 9.40325 31.9037C11.1097 31.9815 11.6547 32 16 32C20.3453 32 20.8903 31.9815 22.5968 31.9037C24.2998 31.826 25.4627 31.5555 26.4805 31.16C27.5327 30.751 28.425 30.204 29.3145 29.3145C30.204 28.425 30.751 27.5327 31.16 26.4805C31.5555 25.4627 31.826 24.2998 31.9037 22.5968C31.9815 20.8903 32 20.3453 32 16C32 11.6547 31.9815 11.1097 31.9037 9.40325C31.826 7.70025 31.5555 6.53725 31.16 5.5195C30.751 4.46725 30.204 3.575 29.3145 2.6855C28.425 1.796 27.5327 1.249 26.4805 0.84C25.4627 0.4445 24.2998 0.174 22.5968 0.09625C20.8903 0.0185 20.3453 0 16 0Z" fill="white"/>
</g>
<defs>
<clipPath id="clip0_201_7">
<rect width="32" height="32" fill="white"/>
</clipPath>
</defs>
</svg>
