<svg width="23" height="21" viewBox="0 0 23 21" fill="none" xmlns="http://www.w3.org/2000/svg">
<path fill-rule="evenodd" clip-rule="evenodd" d="M0.963956 0C0.158622 0 0.0586225 1.064 0.0586225 1.064C0.0586225 1.064 -0.0507108 10.8293 0.0292891 16.8267C0.247956 20.0587 3.47729 20.3893 3.47729 20.3893C3.47729 20.3893 14.5 20.3587 19.432 20.324C22.6826 19.756 23.0093 16.9027 22.976 15.3453V1.064C22.984 0.709333 22.8 0 22 0H0.963956ZM6.41031 5.85743C8.04993 4.45651 10.2321 4.86805 11.5408 6.39794C12.8494 4.86805 15.0034 4.47125 16.6712 5.85743C18.339 7.24362 18.5417 9.60062 17.2541 11.2575C16.1835 12.6351 12.9437 15.5405 11.8818 16.4809L11.8818 16.4809C11.763 16.5861 11.7036 16.6387 11.6343 16.6594C11.5738 16.6774 11.5077 16.6774 11.4472 16.6594C11.3779 16.6387 11.3185 16.5861 11.1997 16.4809C10.1379 15.5405 6.89801 12.6351 5.82746 11.2575C4.53987 9.60062 4.7707 7.25835 6.41031 5.85743Z" fill="white"/>
</svg>
