<svg width="32" height="32" viewBox="0 0 32 32" fill="none" xmlns="http://www.w3.org/2000/svg">
<path d="M29.3327 4.62778V27.3729C29.3327 27.8929 29.1261 28.3916 28.7584 28.7594C28.3907 29.1271 27.8919 29.3337 27.3719 29.3337H4.6268C4.10677 29.3337 3.60803 29.1271 3.24032 28.7594C2.8726 28.3916 2.66602 27.8929 2.66602 27.3729V4.62778C2.66602 4.10774 2.8726 3.60901 3.24032 3.24129C3.60803 2.87357 4.10677 2.66699 4.6268 2.66699L27.3719 2.66699C27.8919 2.66699 28.3907 2.87357 28.7584 3.24129C29.1261 3.60901 29.3327 4.10774 29.3327 4.62778V4.62778ZM10.5092 12.8631H6.58758V25.4121H10.5092V12.8631ZM10.8621 8.54935C10.8642 8.25271 10.8078 7.95857 10.6962 7.68373C10.5846 7.40888 10.4199 7.15871 10.2116 6.94751C10.0033 6.7363 9.75545 6.56818 9.48219 6.45277C9.20892 6.33735 8.91559 6.27689 8.61896 6.27484H8.54837C7.94513 6.27484 7.3666 6.51447 6.94005 6.94102C6.51349 7.36758 6.27386 7.94611 6.27386 8.54935C6.27386 9.15258 6.51349 9.73111 6.94005 10.1577C7.3666 10.5842 7.94513 10.8239 8.54837 10.8239V10.8239C8.84502 10.8312 9.14021 10.7799 9.41706 10.6731C9.69391 10.5663 9.947 10.406 10.1619 10.2013C10.3767 9.99661 10.5492 9.75161 10.6693 9.48028C10.7895 9.20894 10.855 8.91659 10.8621 8.61993V8.54935ZM25.4111 17.7886C25.4111 14.016 23.0111 12.5493 20.6268 12.5493C19.8461 12.5103 19.0688 12.6765 18.3725 13.0316C17.6761 13.3866 17.085 13.9181 16.6582 14.5729H16.5484V12.8631H12.8621V25.4121H16.7837V18.7376C16.727 18.054 16.9423 17.3757 17.3829 16.8499C17.8234 16.3242 18.4536 15.9935 19.1366 15.9297H19.2856C20.5327 15.9297 21.4582 16.7141 21.4582 18.6905V25.4121H25.3797L25.4111 17.7886Z" fill="white"/>
</svg>
