<svg width="33" height="33" viewBox="0 0 33 33" fill="none" xmlns="http://www.w3.org/2000/svg">
<path d="M29.8346 8.40012C28.854 8.83466 27.8005 9.12827 26.693 9.26098C27.8228 8.58451 28.6896 7.51107 29.0983 6.23329C28.0413 6.86044 26.8704 7.31612 25.6243 7.5604C24.626 6.49871 23.205 5.83398 21.6312 5.83398C18.6106 5.83398 16.1607 8.28385 16.1607 11.3068C16.1607 11.7343 16.21 12.1501 16.3016 12.5517C11.7531 12.3227 7.72359 10.1442 5.02475 6.8346C4.55497 7.64496 4.28485 8.58451 4.28485 9.58512C4.28485 11.483 5.25141 13.1589 6.71828 14.1396C5.82101 14.1102 4.97777 13.8648 4.24023 13.4549V13.5253C4.24023 16.176 6.12519 18.3875 8.62908 18.8902C8.1687 19.0146 7.68601 19.0804 7.18805 19.0804C6.83572 19.0804 6.49161 19.0475 6.15807 18.9841C6.85451 21.1568 8.87454 22.7399 11.2692 22.7822C9.39598 24.2503 7.03655 25.1252 4.47394 25.1252C4.03235 25.1252 3.59664 25.0994 3.16797 25.0489C5.58965 26.6027 8.46466 27.507 11.5534 27.507C21.6183 27.507 27.1205 19.1708 27.1205 11.941C27.1205 11.7061 27.1146 11.4689 27.1041 11.234C28.1728 10.4612 29.1006 9.49939 29.8323 8.40364L29.8346 8.40012Z" fill="white"/>
</svg>
